<?xml version="1.0" encoding="UTF-8"?>
<svg xmlns="http://www.w3.org/2000/svg" viewBox="0 0 400 60" width="400" height="60">
  <defs>
    <linearGradient id="borderGradient" x1="0%" y1="0%" x2="100%" y2="0%">
      <stop offset="0%" style="stop-color:#F5F0E6;stop-opacity:0.8" />
      <stop offset="25%" style="stop-color:#E5DECF;stop-opacity:1" />
      <stop offset="50%" style="stop-color:#5F7A61;stop-opacity:1" />
      <stop offset="75%" style="stop-color:#E5DECF;stop-opacity:1" />
      <stop offset="100%" style="stop-color:#F5F0E6;stop-opacity:0.8" />
    </linearGradient>
    <pattern id="stonePattern" patternUnits="userSpaceOnUse" width="20" height="10">
      <rect width="20" height="10" fill="url(#borderGradient)" opacity="0.3"/>
      <circle cx="5" cy="5" r="1" fill="#E5DECF" opacity="0.6"/>
      <circle cx="15" cy="3" r="1" fill="#F5F0E6" opacity="0.6"/>
      <circle cx="10" cy="8" r="1" fill="#5F7A61" opacity="0.4"/>
    </pattern>
  </defs>
  
  <!-- Main decorative border -->
  <rect x="0" y="0" width="400" height="60" fill="url(#borderGradient)"/>
  
  <!-- Stone pattern overlay -->
  <rect x="0" y="0" width="400" height="60" fill="url(#stonePattern)" opacity="0.5"/>
  
  <!-- Decorative elements -->
  <path d="M 0 30 Q 100 10 200 30 Q 300 50 400 30" stroke="#FFFFFF" stroke-width="2" fill="none" opacity="0.7"/>
  
  <!-- Church-inspired decorative crosses -->
  <g opacity="0.6">
    <rect x="75" y="25" width="2" height="10" fill="#FFFFFF"/>
    <rect x="71" y="27" width="10" height="2" fill="#FFFFFF"/>
    
    <rect x="195" y="25" width="2" height="10" fill="#FFFFFF"/>
    <rect x="191" y="27" width="10" height="2" fill="#FFFFFF"/>
    
    <rect x="315" y="25" width="2" height="10" fill="#FFFFFF"/>
    <rect x="311" y="27" width="10" height="2" fill="#FFFFFF"/>
  </g>
  
  <!-- Subtle shadow effect -->
  <rect x="0" y="55" width="400" height="5" fill="url(#borderGradient)" opacity="0.3"/>
</svg>
