<?xml version="1.0" encoding="UTF-8"?>
<svg xmlns="http://www.w3.org/2000/svg" viewBox="0 0 64 64" width="64" height="64">
  <defs>
    <linearGradient id="leadershipGradient" x1="0%" y1="0%" x2="100%" y2="100%">
      <stop offset="0%" style="stop-color:#9EC630" />
      <stop offset="100%" style="stop-color:#D4C4A0" />
    </linearGradient>
  </defs>
  
  <!-- Crown base -->
  <polygon points="12,48 20,36 28,44 32,32 36,44 44,36 52,48 12,48" fill="url(#leadershipGradient)"/>
  
  <!-- Crown jewels -->
  <circle cx="20" cy="40" r="2" fill="#C8B59B"/>
  <circle cx="32" cy="36" r="3" fill="#C8B59B"/>
  <circle cx="44" cy="40" r="2" fill="#C8B59B"/>
  
  <!-- Crown spikes -->
  <polygon points="20,36 18,28 22,28" fill="#9EC630"/>
  <polygon points="32,32 30,20 34,20" fill="#9EC630"/>
  <polygon points="44,36 42,28 46,28" fill="#9EC630"/>
  
  <!-- Leadership symbols below -->
  <rect x="16" y="52" width="4" height="8" fill="#2D3748"/>
  <rect x="30" y="52" width="4" height="8" fill="#2D3748"/>
  <rect x="44" y="52" width="4" height="8" fill="#2D3748"/>
  
  <!-- Connecting line -->
  <line x1="12" y1="48" x2="52" y2="48" stroke="#C8B59B" stroke-width="3"/>
  
  <!-- Central leadership symbol -->
  <circle cx="32" cy="56" r="4" fill="#9EC630" opacity="0.8"/>
</svg>
