<?xml version="1.0" encoding="UTF-8"?>
<svg xmlns="http://www.w3.org/2000/svg" viewBox="0 0 64 64" width="64" height="64">
  <defs>
    <linearGradient id="valuesGradient" x1="0%" y1="0%" x2="100%" y2="100%">
      <stop offset="0%" style="stop-color:#9EC630" />
      <stop offset="50%" style="stop-color:#D4C4A0" />
      <stop offset="100%" style="stop-color:#C8B59B" />
    </linearGradient>
  </defs>
  
  <!-- Background hexagon -->
  <polygon points="32,4 52,16 52,48 32,60 12,48 12,16" fill="url(#valuesGradient)" opacity="0.8"/>
  
  <!-- Inner decorative elements -->
  <circle cx="32" cy="32" r="18" fill="none" stroke="#FFFFFF" stroke-width="2" opacity="0.6"/>
  
  <!-- Central prayer hands -->
  <path d="M 24 24 L 28 20 L 32 24 L 36 20 L 40 24 L 36 28 L 32 32 L 28 28 Z" fill="#FFFFFF"/>
  
  <!-- Value symbols around the circle -->
  <!-- Prayer -->
  <circle cx="32" cy="18" r="3" fill="#2D3748"/>
  
  <!-- Bible Study -->
  <rect x="44" y="28" width="6" height="8" fill="#2D3748" rx="1"/>
  
  <!-- Community Service -->
  <circle cx="32" cy="46" r="3" fill="#2D3748"/>
  <circle cx="28" cy="46" r="2" fill="#2D3748"/>
  <circle cx="36" cy="46" r="2" fill="#2D3748"/>
  
  <!-- Youth Development -->
  <circle cx="18" cy="32" r="3" fill="#2D3748"/>
  <circle cx="14" cy="30" r="1.5" fill="#2D3748"/>
  <circle cx="14" cy="34" r="1.5" fill="#2D3748"/>
</svg>
