<?xml version="1.0" encoding="UTF-8"?>
<svg xmlns="http://www.w3.org/2000/svg" viewBox="0 0 64 64" width="64" height="64">
  <defs>
    <linearGradient id="visitGradient" x1="0%" y1="0%" x2="100%" y2="100%">
      <stop offset="0%" style="stop-color:#D4C4A0" />
      <stop offset="50%" style="stop-color:#C8B59B" />
      <stop offset="100%" style="stop-color:#9EC630" />
    </linearGradient>
  </defs>
  
  <!-- Welcome mat -->
  <rect x="12" y="44" width="40" height="12" fill="url(#visitGradient)" rx="2"/>
  
  <!-- Welcome text area -->
  <rect x="16" y="48" width="32" height="4" fill="#2D3748" rx="1"/>
  
  <!-- Church door -->
  <rect x="26" y="16" width="12" height="28" fill="#C8B59B" rx="2"/>
  
  <!-- Door handle -->
  <circle cx="35" cy="30" r="1.5" fill="#9EC630"/>
  
  <!-- Door panels -->
  <rect x="28" y="20" width="8" height="8" fill="none" stroke="#2D3748" stroke-width="1"/>
  <rect x="28" y="32" width="8" height="8" fill="none" stroke="#2D3748" stroke-width="1"/>
  
  <!-- Church walls -->
  <rect x="18" y="24" width="8" height="20" fill="#D4C4A0"/>
  <rect x="38" y="24" width="8" height="20" fill="#D4C4A0"/>
  
  <!-- Church windows -->
  <rect x="20" y="28" width="4" height="6" fill="#FFFFFF" rx="2"/>
  <rect x="40" y="28" width="4" height="6" fill="#FFFFFF" rx="2"/>
  
  <!-- Welcome path -->
  <rect x="28" y="40" width="8" height="4" fill="#9EC630" opacity="0.6"/>
  
  <!-- Decorative bushes -->
  <circle cx="15" cy="42" r="3" fill="#9EC630" opacity="0.8"/>
  <circle cx="49" cy="42" r="3" fill="#9EC630" opacity="0.8"/>
</svg>
